<?xml version="1.0" encoding="UTF-8" standalone="no"?><!DOCTYPE svg PUBLIC "-//W3C//DTD SVG 1.1//EN" "http://www.w3.org/Graphics/SVG/1.1/DTD/svg11.dtd"><svg width="100%" height="100%" viewBox="0 0 500 500" version="1.1" xmlns="http://www.w3.org/2000/svg" xmlns:xlink="http://www.w3.org/1999/xlink" xml:space="preserve" xmlns:serif="http://www.serif.com/" style="fill-rule:evenodd;clip-rule:evenodd;stroke-linecap:round;stroke-linejoin:round;stroke-miterlimit:1.5;"><g><circle id="Back" cx="225" cy="240" r="150" style="fill-opacity:0;stroke:url(#_Radial1);stroke-width:12.08px;"/><path id="Front" d="M100,250c0,-82.787 67.213,-150 150,-150c82.787,0 150,67.213 150,150c0,82.787 -67.213,150 -150,150c-82.787,0 -150,-67.213 -150,-150Z" style="fill-opacity:0;stroke:url(#_Radial2);stroke-width:12.08px;"/><path id="Front1" serif:id="Front" d="M125,260c0,-82.787 67.213,-150 150,-150c82.787,0 150,67.213 150,150c0,82.787 -67.213,150 -150,150c-82.787,0 -150,-67.213 -150,-150Z" style="fill-opacity:0;stroke:url(#_Radial3);stroke-width:12.08px;"/></g><defs><radialGradient id="_Radial1" cx="0" cy="0" r="1" gradientUnits="userSpaceOnUse" gradientTransform="matrix(325,0,0,310,-23,260.5)"><stop offset="0" style="stop-color:#ff00c7;stop-opacity:1"/><stop offset="1" style="stop-color:#000;stop-opacity:1"/></radialGradient><radialGradient id="_Radial2" cx="0" cy="0" r="1" gradientUnits="userSpaceOnUse" gradientTransform="matrix(1.99005e-14,-325,310,1.8982e-14,270.5,498)"><stop offset="0" style="stop-color:#ff00c7;stop-opacity:1"/><stop offset="1" style="stop-color:#000;stop-opacity:1"/></radialGradient><radialGradient id="_Radial3" cx="0" cy="0" r="1" gradientUnits="userSpaceOnUse" gradientTransform="matrix(1.99005e-14,-325,310,1.8982e-14,295.5,508)"><stop offset="0" style="stop-color:#ff00c7;stop-opacity:1"/><stop offset="1" style="stop-color:#000;stop-opacity:1"/></radialGradient></defs></svg>